<?xml version="1.0" standalone="no"?>
<!DOCTYPE svg PUBLIC "-//W3C//DTD SVG 20010904//EN"
 "http://www.w3.org/TR/2001/REC-SVG-20010904/DTD/svg10.dtd">
<svg version="1.0" xmlns="http://www.w3.org/2000/svg"
 width="1920.000000pt" height="1080.000000pt" viewBox="0 0 1920.000000 1080.000000"
 preserveAspectRatio="xMidYMid meet">

<g transform="translate(0.000000,1080.000000) scale(0.100000,-0.100000)"
fill="white" stroke="#ccc">
<path d="M6690 5395 l0 -1995 2915 0 2915 0 0 1995 0 1995 -2915 0 -2915 0 0
-1995z m5640 0 l0 -1815 -87 0 -88 0 -622 622 -623 623 -323 -323 c-177 -177
-329 -322 -337 -322 -8 0 -323 308 -700 685 -377 377 -688 684 -693 682 -4 -1
-448 -442 -986 -981 -579 -579 -983 -976 -990 -972 -12 8 -17 3597 -4 3609 3
4 1232 7 2730 7 l2723 0 0 -1815z m-3020 -461 c245 -245 436 -444 425 -441
-11 3 -113 33 -226 66 -114 34 -214 61 -222 61 -9 0 -98 -58 -200 -128 -101
-71 -188 -131 -193 -135 -6 -3 -89 57 -185 134 -96 76 -178 139 -184 139 -5 0
-131 -32 -279 -70 -148 -39 -272 -70 -275 -70 -3 0 194 200 439 445 245 245
447 445 450 445 3 0 205 -201 450 -446z m1989 -601 c2 -2 2 -5 -1 -9 -3 -3
-50 8 -104 23 l-99 29 -83 -58 c-45 -32 -87 -58 -91 -58 -5 0 -42 27 -84 60
l-75 60 -117 -31 c-64 -17 -120 -28 -123 -24 -3 3 81 93 188 200 l195 195 195
-192 c107 -106 196 -194 199 -195z"/>
<path d="M10505 6486 c-229 -73 -375 -298 -337 -519 41 -236 281 -422 507
-391 315 42 504 371 372 649 -83 174 -240 276 -424 274 -43 0 -96 -6 -118 -13z"/>
</g>
</svg>
